<svg id="ebtkld56uc31" xmlns="http://www.w3.org/2000/svg" xmlns:xlink="http://www.w3.org/1999/xlink" viewBox="0 0 1080 1080" shape-rendering="geometricPrecision" text-rendering="geometricPrecision" width="1080" height="1080"><style><![CDATA[#ebtkld56uc34 {animation: ebtkld56uc34_c_o 7500ms linear infinite alternate forwards}@keyframes ebtkld56uc34_c_o { 0% {opacity: 0} 24.133333% {opacity: 0} 37.333333% {opacity: 1} 100% {opacity: 1} }#ebtkld56uc38 {animation: ebtkld56uc38_s_do 7500ms linear infinite alternate forwards}@keyframes ebtkld56uc38_s_do { 0% {stroke-dashoffset: 856.340000} 80% {stroke-dashoffset: 856.340000} 88% {stroke-dashoffset: 0} 100% {stroke-dashoffset: 0} }#ebtkld56uc39 {animation: ebtkld56uc39_s_do 7500ms linear infinite alternate forwards}@keyframes ebtkld56uc39_s_do { 0% {stroke-dashoffset: 488.580000} 77.333333% {stroke-dashoffset: 488.580000} 84% {stroke-dashoffset: 0} 100% {stroke-dashoffset: 0} }#ebtkld56uc310 {animation: ebtkld56uc310_s_do 7500ms linear infinite alternate forwards}@keyframes ebtkld56uc310_s_do { 0% {stroke-dashoffset: 476.830000} 70.666667% {stroke-dashoffset: 476.830000} 80% {stroke-dashoffset: 0} 100% {stroke-dashoffset: 0} }#ebtkld56uc311 {animation: ebtkld56uc311_s_do 7500ms linear infinite alternate forwards}@keyframes ebtkld56uc311_s_do { 0% {stroke-dashoffset: 180.390000} 65.333333% {stroke-dashoffset: 180.390000} 74.666667% {stroke-dashoffset: 0} 100% {stroke-dashoffset: 0} }#ebtkld56uc312 {animation: ebtkld56uc312_s_do 7500ms linear infinite alternate forwards}@keyframes ebtkld56uc312_s_do { 0% {stroke-dashoffset: 180.390000} 60% {stroke-dashoffset: 180.390000} 69.333333% {stroke-dashoffset: 0} 100% {stroke-dashoffset: 0} }#ebtkld56uc313 {animation: ebtkld56uc313_s_do 7500ms linear infinite alternate forwards}@keyframes ebtkld56uc313_s_do { 0% {stroke-dashoffset: 123.840000} 52.400000% {stroke-dashoffset: 123.840000} 61.333333% {stroke-dashoffset: 0} 100% {stroke-dashoffset: 0} }#ebtkld56uc314 {animation: ebtkld56uc314_s_do 7500ms linear infinite alternate forwards}@keyframes ebtkld56uc314_s_do { 0% {stroke-dashoffset: 180.390000} 37.333333% {stroke-dashoffset: 180.390000} 50.666667% {stroke-dashoffset: 0} 100% {stroke-dashoffset: 0} }#ebtkld56uc315 {animation: ebtkld56uc315_s_do 7500ms linear infinite alternate forwards}@keyframes ebtkld56uc315_s_do { 0% {stroke-dashoffset: 180.390000} 33.333333% {stroke-dashoffset: 180.390000} 46.666667% {stroke-dashoffset: 0} 100% {stroke-dashoffset: 0} }#ebtkld56uc316 {animation: ebtkld56uc316_s_do 7500ms linear infinite alternate forwards}@keyframes ebtkld56uc316_s_do { 0% {stroke-dashoffset: 180.390000} 30.666667% {stroke-dashoffset: 180.390000} 44% {stroke-dashoffset: 0} 100% {stroke-dashoffset: 0} }#ebtkld56uc317 {animation: ebtkld56uc317_s_do 7500ms linear infinite alternate forwards}@keyframes ebtkld56uc317_s_do { 0% {stroke-dashoffset: 180.390000} 28% {stroke-dashoffset: 180.390000} 41.333333% {stroke-dashoffset: 0} 100% {stroke-dashoffset: 0} }#ebtkld56uc318 {animation: ebtkld56uc318_s_do 7500ms linear infinite alternate forwards}@keyframes ebtkld56uc318_s_do { 0% {stroke-dashoffset: 180.390000} 34.666667% {stroke-dashoffset: 180.390000} 48% {stroke-dashoffset: 0} 100% {stroke-dashoffset: 0} }#ebtkld56uc319 {animation: ebtkld56uc319_s_do 7500ms linear infinite alternate forwards}@keyframes ebtkld56uc319_s_do { 0% {stroke-dashoffset: 1302.470000} 33.333333% {stroke-dashoffset: 1302.470000} 46.666667% {stroke-dashoffset: 0} 100% {stroke-dashoffset: 0} }#ebtkld56uc320 {animation: ebtkld56uc320_s_do 7500ms linear infinite alternate forwards}@keyframes ebtkld56uc320_s_do { 0% {stroke-dashoffset: 25062.490000} 36% {stroke-dashoffset: 25062.490000} 89.333333% {stroke-dashoffset: 0} 100% {stroke-dashoffset: 0} }#ebtkld56uc321 {animation: ebtkld56uc321_c_o 7500ms linear infinite alternate forwards}@keyframes ebtkld56uc321_c_o { 0% {opacity: 1} 20% {opacity: 1} 26.666667% {opacity: 0} 100% {opacity: 0} }#ebtkld56uc335 {
           animation-name: ebtkld56uc335_s_do, ebtkld56uc335_s_da;
           animation-duration: 7500ms;
           animation-fill-mode: forwards;
           animation-timing-function: linear;
           animation-direction: alternate;
           animation-iteration-count: infinite;  
        }@keyframes ebtkld56uc335_s_do { 0% {stroke-dashoffset: 0} 6.666667% {stroke-dashoffset: 0} 20% {stroke-dashoffset: 6124.230000} 100% {stroke-dashoffset: 6124.230000} }@keyframes ebtkld56uc335_s_da { 0% {stroke-dasharray: 6124.230000} 6.666667% {stroke-dasharray: 6124.230000} 20% {stroke-dasharray: 6124.230000} 100% {stroke-dasharray: 6124.230000} }#ebtkld56uc336 {
           animation-name: ebtkld56uc336_s_do, ebtkld56uc336_s_da;
           animation-duration: 7500ms;
           animation-fill-mode: forwards;
           animation-timing-function: linear;
           animation-direction: alternate;
           animation-iteration-count: infinite;  
        }@keyframes ebtkld56uc336_s_do { 0% {stroke-dashoffset: 0} 6.666667% {stroke-dashoffset: 0} 20% {stroke-dashoffset: 3625.610000} 100% {stroke-dashoffset: 3625.610000} }@keyframes ebtkld56uc336_s_da { 0% {stroke-dasharray: 3625.610000} 6.666667% {stroke-dasharray: 3625.610000} 20% {stroke-dasharray: 3625.610000} 100% {stroke-dasharray: 3625.610000} }#ebtkld56uc337 {animation: ebtkld56uc337_s_do 7500ms linear infinite alternate forwards}@keyframes ebtkld56uc337_s_do { 0% {stroke-dashoffset: 0} 6.666667% {stroke-dashoffset: 0} 20% {stroke-dashoffset: 1245.790000} 100% {stroke-dashoffset: 1245.790000} }]]></style><g id="ebtkld56uc32"><rect id="ebtkld56uc33" width="1172.770000" height="1172.770000" rx="0" ry="0" transform="matrix(1 0 0 1 -46.38000000000000 -45.27000000000000)" fill="rgb(242,242,242)" stroke="none" stroke-width="1"/></g><g id="ebtkld56uc34" opacity="0"><path id="ebtkld56uc35" d="M749.230000,498.180000C732.930000,498.180000,719.760000,511.380000,719.760000,527.650000L719.760000,735.320000C696.950000,721.150000,671.960000,704.140000,650.240000,689.080000C630.200000,675.200000,610.870000,656.380000,594.190000,641.320000C597.700000,637.670000,599.500000,634.280000,602.770000,630.800000C629,606.050000,637.690000,573.440000,623.890000,542.620000C612.710000,517.650000,584.580000,497.330000,553.670000,497.330000L552.080000,497.330000C521.260000,497.330000,493.490000,517.160000,481.690000,542.750000C469.250000,569.730000,475.410000,604.510000,501.520000,626.900000C505.240000,630.090000,508.900000,637.280000,513.370000,640.880000C496.690000,655.940000,475.550000,675.200000,455.540000,689.080000C433.790000,704.140000,408.830000,721.140000,386.020000,735.320000L386.020000,527.650000C386.020000,511.380000,372.820000,498.180000,356.550000,498.180000C340.250000,498.180000,327.080000,511.380000,327.080000,527.650000L327.080000,785.500000C327.080000,795.580000,332.210000,804.950000,340.690000,810.340000C349.180000,815.760000,359.840000,816.470000,368.950000,812.230000C402.010000,796.850000,447.360000,764.110000,488.240000,735.790000C511.730000,719.520000,533.860000,698.240000,552.870000,680.910000C571.880000,698.240000,593.180000,718.310000,616.640000,734.580000C657.510000,762.900000,703.750000,796.850000,736.780000,812.230000C740.730000,814.060000,744.970000,814.970000,749.220000,814.970000C754.730000,814.970000,760.240000,813.410000,765.040000,810.340000C773.530000,804.950000,778.680000,795.580000,778.680000,785.500000L778.680000,527.650000C778.700000,511.390000,765.490000,498.180000,749.230000,498.180000ZM571.160000,578.990000C570.630000,583.380000,568.400000,585.870000,563.220000,590.640000C562.720000,591.110000,561.770000,592.200000,561.300000,592.740000C558.090000,596.160000,556.390000,597.260000,552.890000,600.910000C549.410000,597.260000,546.050000,593.720000,542.840000,590.300000C542.600000,590.060000,542.400000,589.860000,542.190000,589.650000C538.270000,585.730000,536.760000,583.320000,535.460000,579.520000C534.340000,577.040000,533.890000,574.760000,533.890000,571.900000C533.890000,560.730000,541.890000,552.370000,553.030000,552.370000C564.200000,552.370000,573.220000,561.390000,573.220000,572.560000C573.210000,574.300000,571.600000,577.370000,571.160000,578.990000Z" fill="rgb(5,5,229)" stroke="none" stroke-width="1"/><path id="ebtkld56uc36" d="M446.440000,499.100000C430.290000,499.100000,417.130000,486.080000,416.980000,469.900000L416.320000,404.060000C416.320000,326.300000,482.830000,267.820000,553.180000,267.820000C627.020000,267.820000,689.400000,331.510000,689.400000,396.590000C689.400000,412.870000,676.210000,426.060000,659.930000,426.060000C643.650000,426.060000,630.460000,412.870000,630.460000,396.590000C630.460000,360.040000,593.620000,326.760000,553.180000,326.760000C515.310000,326.760000,475.260000,362.650000,475.260000,396.590000L475.920000,469.360000C476.070000,485.630000,463,498.950000,446.720000,499.090000C446.630000,499.100000,446.530000,499.100000,446.440000,499.100000Z" fill="rgb(5,5,229)" stroke="none" stroke-width="1"/></g><g id="ebtkld56uc37"><circle id="ebtkld56uc38" r="136.290000" transform="matrix(1 0 0 1 553.16999999999996 404.06000000000000)" fill="none" stroke="rgb(0,0,0)" stroke-width="1.500000" stroke-miterlimit="10" stroke-dashoffset="856.340000" stroke-dasharray="856.340000"/><circle id="ebtkld56uc39" r="77.760000" transform="matrix(1 0 0 1 553.16999999999996 404.06000000000000)" fill="none" stroke="rgb(0,0,0)" stroke-width="1.500000" stroke-miterlimit="10" stroke-dashoffset="488.580000" stroke-dasharray="488.580000"/><ellipse id="ebtkld56uc310" rx="77.620000" ry="74.120000" transform="matrix(1 0 0 1 553.02999999999997 572)" fill="none" stroke="rgb(0,0,0)" stroke-width="1.500000" stroke-miterlimit="10" stroke-dashoffset="476.830000" stroke-dasharray="476.830000"/><circle id="ebtkld56uc311" r="28.710000" transform="matrix(1 0 0 1 749.12000000000000 526.60000000000002)" fill="none" stroke="rgb(0,0,0)" stroke-width="1.500000" stroke-miterlimit="10" stroke-dashoffset="180.390000" stroke-dasharray="180.390000"/><circle id="ebtkld56uc312" r="28.710000" transform="matrix(1 0 0 1 553.85000000000002 641.61000000000001)" fill="none" stroke="rgb(0,0,0)" stroke-width="1.500000" stroke-miterlimit="10" stroke-dashoffset="180.390000" stroke-dasharray="180.390000"/><circle id="ebtkld56uc313" r="19.710000" transform="matrix(1 0 0 1 553.16999999999996 570.92999999999995)" fill="none" stroke="rgb(0,0,0)" stroke-width="1.500000" stroke-miterlimit="10" stroke-dashoffset="123.840000" stroke-dasharray="123.840000"/><circle id="ebtkld56uc314" r="28.710000" transform="matrix(1 0 0 1 356.55000000000001 526.60000000000002)" fill="none" stroke="rgb(0,0,0)" stroke-width="1.500000" stroke-miterlimit="10" stroke-dashoffset="180.390000" stroke-dasharray="180.390000"/><circle id="ebtkld56uc315" r="28.710000" transform="matrix(1 0 0 1 356.55000000000001 785.50000000000000)" fill="none" stroke="rgb(0,0,0)" stroke-width="1.500000" stroke-miterlimit="10" stroke-dashoffset="180.390000" stroke-dasharray="180.390000"/><circle id="ebtkld56uc316" r="28.710000" transform="matrix(1 0 0 1 749.22000000000003 785.50000000000000)" fill="none" stroke="rgb(0,0,0)" stroke-width="1.500000" stroke-miterlimit="10" stroke-dashoffset="180.390000" stroke-dasharray="180.390000"/><circle id="ebtkld56uc317" r="28.710000" transform="matrix(1 0 0 1 446.69999999999999 469.63000000000000)" fill="none" stroke="rgb(0,0,0)" stroke-width="1.500000" stroke-miterlimit="10" stroke-dashoffset="180.390000" stroke-dasharray="180.390000"/><circle id="ebtkld56uc318" r="28.710000" transform="matrix(1 0 0 1 659.91999999999996 397.75999999999999)" fill="none" stroke="rgb(0,0,0)" stroke-width="1.500000" stroke-miterlimit="10" stroke-dashoffset="180.390000" stroke-dasharray="180.390000"/><path id="ebtkld56uc319" d="M769.950000,-7.030000C771.370000,12.420000,772.090000,32.070000,772.090000,51.890000C772.090000,489.250000,420.780000,844.560000,-15.040000,851.030000" fill="none" stroke="rgb(0,0,0)" stroke-width="1.500000" stroke-miterlimit="10" stroke-dashoffset="1302.470000" stroke-dasharray="1302.470000"/><path id="ebtkld56uc320" d="M335.790000,-7.030000C335.080000,6.760000,334.720000,37.920000,334.720000,51.890000C334.720000,474.750000,663.110000,820.910000,1078.780000,849.250000L1114.430000,851.040000L1101.770000,907.590000L1078.780000,909.640000C632.380000,878.320000,279.970000,506.260000,279.970000,51.900000C279.970000,26.050000,281.110000,0.460000,283.340000,-24.810000L824.710000,-9.190000C826.130000,10.980000,826.850000,31.350000,826.850000,51.890000C826.850000,520.780000,451.550000,902.010000,-15.040000,911.590000L-15.040000,1097.230000L327.840000,1095.070000L327.840000,-30.820000L385.940000,-31.640000L385.940000,1094.250000L416.880000,1095.720000L416.880000,-30.170000L475.410000,-30.170000L475.410000,1095.720000L553.030000,1107.890000L553.030000,-18L630.930000,-30.170000L630.930000,1095.720000L689.460000,1094.250000L689.460000,-13.750000L720.400000,-12.280000L720.400000,1095.720000L777.860000,1094.250000L777.860000,-7.030000L1108.750000,-7.030000L1140.410000,270.410000L1118.350000,267.770000L-41.870000,267.770000L-42.390000,369.050000L1128.680000,369.050000L1128.680000,426.470000L-41.870000,426.470000L-41.870000,446.810000L1108.760000,446.810000L1108.760000,497.890000L-70.420000,497.890000L-70.420000,642.760000L1108.760000,642.760000L1108.760000,814.220000L-32.680000,814.220000" fill="none" stroke="rgb(0,0,0)" stroke-width="1.500000" stroke-miterlimit="10" stroke-dashoffset="25062.490000" stroke-dasharray="25062.490000"/></g><g id="ebtkld56uc321"><g id="ebtkld56uc322"><g id="ebtkld56uc323"><path id="ebtkld56uc324" d="M326.400000,645.750000L300.190000,532.840000C299.840000,531.340000,300.980000,529.900000,302.520000,529.900000L319.460000,529.900000C320.600000,529.900000,321.580000,530.700000,321.810000,531.810000L332.870000,585.500000L340.010000,621.020000L340.510000,621.020000L348.810000,585.500000L362.090000,529.900000L386.320000,529.900000L399.600000,585.500000L407.730000,621.020000L408.230000,621.020000L415.530000,585.500000L426.910000,531.800000C427.140000,530.690000,428.120000,529.900000,429.250000,529.900000L445.190000,529.900000C446.740000,529.900000,447.880000,531.350000,447.520000,532.850000L420.510000,645.740000L400.340000,645.740000C397.670000,645.740000,395.340000,643.910000,394.710000,641.310000L381.010000,584.500000L373.870000,553.960000L373.540000,553.960000L366.070000,584.500000L352.370000,641.310000C351.740000,643.910000,349.420000,645.740000,346.740000,645.740000L326.400000,645.740000L326.400000,645.750000Z" transform="matrix(1 0 0 1 0.30318131999996 0)" fill="rgb(5,5,229)" stroke="none" stroke-width="1"/><path id="ebtkld56uc325" d="M488.050000,647.740000C481.850000,647.740000,476.290000,646.690000,471.370000,644.590000C466.450000,642.490000,462.240000,639.450000,458.760000,635.460000C455.280000,631.470000,452.590000,626.690000,450.710000,621.100000C448.830000,615.510000,447.890000,609.230000,447.890000,602.260000C447.890000,595.290000,448.830000,589.040000,450.710000,583.510000C452.590000,577.980000,455.270000,573.250000,458.760000,569.320000C462.250000,565.390000,466.450000,562.380000,471.370000,560.280000C476.290000,558.180000,481.850000,557.130000,488.050000,557.130000C494.250000,557.130000,499.830000,558.180000,504.810000,560.280000C509.790000,562.380000,514.020000,565.400000,517.510000,569.320000C521,573.250000,523.680000,577.980000,525.560000,583.510000C527.440000,589.040000,528.380000,595.290000,528.380000,602.260000C528.380000,609.230000,527.440000,615.510000,525.560000,621.100000C523.680000,626.690000,521,631.470000,517.510000,635.460000C514.020000,639.450000,509.790000,642.490000,504.810000,644.590000C499.840000,646.690000,494.250000,647.740000,488.050000,647.740000ZM488.050000,630.650000C493.690000,630.650000,498.120000,628.940000,501.330000,625.510000C504.540000,622.080000,506.140000,617.050000,506.140000,610.410000L506.140000,594.310000C506.140000,587.780000,504.530000,582.800000,501.330000,579.370000C498.120000,575.940000,493.700000,574.230000,488.050000,574.230000C482.520000,574.230000,478.150000,575.950000,474.940000,579.370000C471.730000,582.800000,470.130000,587.780000,470.130000,594.310000L470.130000,610.410000C470.130000,617.050000,471.730000,622.080000,474.940000,625.510000C478.150000,628.930000,482.520000,630.650000,488.050000,630.650000Z" fill="rgb(5,5,229)" stroke="none" stroke-width="1"/><path id="ebtkld56uc326" d="M539.500000,641.720000L539.500000,563.520000C539.500000,559.980000,542.370000,557.120000,545.900000,557.120000L560.740000,557.120000L560.740000,577.040000L561.570000,577.040000C562.120000,574.720000,562.980000,572.480000,564.140000,570.320000C565.300000,568.160000,566.820000,566.250000,568.700000,564.590000C570.580000,562.930000,572.820000,561.600000,575.420000,560.610000C578.020000,559.610000,581.030000,559.120000,584.470000,559.120000L586.410000,559.120000C587.900000,559.120000,589.110000,560.330000,589.110000,561.820000L589.110000,579.200000L582.470000,579.200000C575.280000,579.200000,569.860000,580.250000,566.210000,582.350000C562.560000,584.450000,560.730000,587.880000,560.730000,592.640000L560.730000,641.720000C560.730000,643.950000,558.930000,645.750000,556.700000,645.750000L543.520000,645.750000C541.310000,645.750000,539.500000,643.950000,539.500000,641.720000Z" fill="rgb(5,5,229)" stroke="none" stroke-width="1"/><path id="ebtkld56uc327" d="M603.580000,522.930000L615.810000,522.930000C617.200000,522.930000,618.330000,524.060000,618.330000,525.450000L618.330000,596.950000L619.160000,596.950000L630.610000,581.350000L650.030000,559.110000L668.460000,559.110000C670.640000,559.110000,671.790000,561.690000,670.340000,563.310000L645.340000,591.360000C644.670000,592.110000,644.570000,593.220000,645.110000,594.080000L677.240000,645.740000L652.010000,645.740000L629.770000,606.900000L618.320000,619.350000L618.320000,643.210000C618.320000,644.600000,617.190000,645.730000,615.800000,645.730000L599.600000,645.730000C598.210000,645.730000,597.080000,644.600000,597.080000,643.210000L597.080000,529.410000C597.090000,525.840000,600,522.930000,603.580000,522.930000Z" fill="rgb(5,5,229)" stroke="none" stroke-width="1"/><path id="ebtkld56uc328" d="M926.620000,522.930000L942.820000,522.930000C944.210000,522.930000,945.340000,524.060000,945.340000,525.450000L945.340000,596.950000L946.170000,596.950000L957.620000,581.350000L977.040000,559.110000L995.470000,559.110000C997.650000,559.110000,998.800000,561.690000,997.350000,563.310000L972.350000,591.360000C971.680000,592.110000,971.580000,593.220000,972.120000,594.080000L1004.250000,645.740000L979.020000,645.740000L956.780000,606.900000L945.330000,619.350000L945.330000,643.210000C945.330000,644.600000,944.200000,645.730000,942.810000,645.730000L926.610000,645.730000C925.220000,645.730000,924.090000,644.600000,924.090000,643.210000L924.090000,525.460000C924.090000,524.060000,925.220000,522.930000,926.620000,522.930000Z" fill="rgb(5,5,229)" stroke="none" stroke-width="1"/><path id="ebtkld56uc329" d="M684.060000,645.750000L684.060000,524.460000C684.060000,523.050000,685.200000,521.910000,686.610000,521.910000L703.410000,521.910000C704.820000,521.910000,705.960000,523.050000,705.960000,524.460000L705.960000,626.330000L749.050000,626.330000C750.460000,626.330000,751.600000,627.470000,751.600000,628.880000L751.600000,643.190000C751.600000,644.600000,750.460000,645.740000,749.050000,645.740000L684.060000,645.740000L684.060000,645.750000Z" fill="rgb(5,5,229)" stroke="none" stroke-width="1"/><path id="ebtkld56uc330" d="M794.260000,647.740000C788.060000,647.740000,782.500000,646.690000,777.580000,644.590000C772.660000,642.490000,768.450000,639.450000,764.970000,635.460000C761.480000,631.480000,758.800000,626.690000,756.920000,621.100000C755.040000,615.510000,754.100000,609.230000,754.100000,602.260000C754.100000,595.290000,755.040000,589.040000,756.920000,583.510000C758.800000,577.980000,761.480000,573.250000,764.970000,569.320000C768.450000,565.390000,772.660000,562.380000,777.580000,560.280000C782.500000,558.180000,788.060000,557.130000,794.260000,557.130000C800.460000,557.130000,806.040000,558.180000,811.020000,560.280000C816,562.380000,820.230000,565.400000,823.720000,569.320000C827.210000,573.250000,829.890000,577.980000,831.770000,583.510000C833.650000,589.040000,834.590000,595.290000,834.590000,602.260000C834.590000,609.230000,833.650000,615.510000,831.770000,621.100000C829.890000,626.690000,827.210000,631.470000,823.720000,635.460000C820.240000,639.440000,816,642.490000,811.020000,644.590000C806.050000,646.690000,800.460000,647.740000,794.260000,647.740000ZM794.260000,630.650000C799.900000,630.650000,804.330000,628.940000,807.540000,625.510000C810.750000,622.080000,812.350000,617.050000,812.350000,610.410000L812.350000,594.310000C812.350000,587.780000,810.750000,582.800000,807.540000,579.370000C804.330000,575.940000,799.910000,574.230000,794.260000,574.230000C788.730000,574.230000,784.360000,575.950000,781.150000,579.370000C777.940000,582.800000,776.340000,587.780000,776.340000,594.310000L776.340000,610.410000C776.340000,617.050000,777.940000,622.080000,781.150000,625.510000C784.360000,628.930000,788.730000,630.650000,794.260000,630.650000Z" fill="rgb(5,5,229)" stroke="none" stroke-width="1"/><path id="ebtkld56uc331" d="M880.900000,647.740000C874.480000,647.740000,868.780000,646.690000,863.810000,644.590000C858.830000,642.490000,854.650000,639.450000,851.280000,635.460000C847.900000,631.480000,845.330000,626.690000,843.560000,621.100000C841.790000,615.510000,840.900000,609.230000,840.900000,602.260000C840.900000,595.290000,841.780000,589.040000,843.560000,583.510000C845.330000,577.980000,847.900000,573.250000,851.280000,569.320000C854.650000,565.390000,858.830000,562.380000,863.810000,560.280000C868.790000,558.180000,874.490000,557.130000,880.900000,557.130000C889.640000,557.130000,896.860000,559.070000,902.560000,562.940000C907.580000,566.350000,911.380000,570.920000,913.950000,576.650000C914.530000,577.950000,913.930000,579.480000,912.630000,580.060000L900.070000,585.680000C898.770000,586.260000,897.200000,585.690000,896.650000,584.370000C895.580000,581.800000,894.010000,579.610000,891.930000,577.790000C889.220000,575.410000,885.540000,574.220000,880.890000,574.220000C874.910000,574.220000,870.460000,576.100000,867.530000,579.860000C864.600000,583.620000,863.130000,588.550000,863.130000,594.630000L863.130000,610.400000C863.130000,616.490000,864.590000,621.380000,867.530000,625.090000C870.460000,628.800000,874.920000,630.650000,880.890000,630.650000C885.980000,630.650000,889.910000,629.350000,892.670000,626.750000C895.430000,624.150000,897.590000,620.920000,899.140000,617.040000L915.410000,624.840000C912.530000,632.470000,908.160000,638.200000,902.300000,642.020000C896.440000,645.830000,889.310000,647.740000,880.900000,647.740000Z" fill="rgb(5,5,229)" stroke="none" stroke-width="1"/></g></g><path id="ebtkld56uc332" d="M244.470000,558.350000C238.390000,558.350000,233.470000,563.280000,233.470000,569.350000L233.470000,646.870000C224.960000,641.580000,215.630000,635.230000,207.520000,629.610000C200.040000,624.430000,192.820000,617.400000,186.600000,611.780000C187.910000,610.420000,188.580000,609.150000,189.800000,607.850000C199.590000,598.610000,202.830000,586.440000,197.680000,574.930000C193.510000,565.610000,183.010000,558.020000,171.470000,558.020000L170.880000,558.020000C159.370000,558.020000,149.010000,565.420000,144.600000,574.980000C139.960000,585.050000,142.260000,598.030000,152,606.390000C153.390000,607.580000,154.760000,610.270000,156.430000,611.610000C150.200000,617.230000,142.310000,624.420000,134.840000,629.600000C126.720000,635.220000,117.400000,641.570000,108.890000,646.860000L108.890000,569.340000C108.890000,563.270000,103.960000,558.340000,97.890000,558.340000C91.810000,558.340000,86.890000,563.270000,86.890000,569.340000L86.890000,665.590000C86.890000,669.350000,88.800000,672.850000,91.970000,674.860000C95.140000,676.880000,99.120000,677.150000,102.520000,675.560000C114.860000,669.820000,131.790000,657.600000,147.050000,647.030000C155.820000,640.960000,164.080000,633.010000,171.170000,626.550000C178.270000,633.020000,186.220000,640.510000,194.970000,646.580000C210.230000,657.150000,227.490000,669.820000,239.820000,675.570000C241.290000,676.250000,242.880000,676.590000,244.460000,676.590000C246.520000,676.590000,248.570000,676.010000,250.370000,674.860000C253.540000,672.850000,255.460000,669.350000,255.460000,665.590000L255.460000,569.340000C255.470000,563.280000,250.540000,558.350000,244.470000,558.350000ZM178,588.510000C177.800000,590.150000,176.970000,591.080000,175.030000,592.860000C174.840000,593.040000,174.490000,593.440000,174.310000,593.640000C173.110000,594.920000,172.480000,595.330000,171.170000,596.690000C169.870000,595.330000,168.620000,594.010000,167.420000,592.730000C167.330000,592.640000,167.260000,592.560000,167.180000,592.490000C165.720000,591.030000,165.150000,590.130000,164.670000,588.710000C164.250000,587.790000,164.080000,586.930000,164.080000,585.870000C164.080000,581.700000,167.070000,578.580000,171.230000,578.580000C175.400000,578.580000,178.770000,581.950000,178.770000,586.120000C178.770000,586.760000,178.160000,587.910000,178,588.510000Z" fill="rgb(5,5,229)" stroke="none" stroke-width="1"/><path id="ebtkld56uc333" d="M131.450000,558.690000C125.420000,558.690000,120.510000,553.830000,120.450000,547.790000L120.200000,523.210000C120.200000,494.180000,145.030000,472.350000,171.290000,472.350000C198.850000,472.350000,222.140000,496.120000,222.140000,520.420000C222.140000,526.500000,217.210000,531.420000,211.140000,531.420000C205.070000,531.420000,200.140000,526.500000,200.140000,520.420000C200.140000,506.780000,186.390000,494.350000,171.290000,494.350000C157.150000,494.350000,142.200000,507.750000,142.200000,520.420000L142.450000,547.580000C142.510000,553.650000,137.630000,558.620000,131.550000,558.680000C131.510000,558.690000,131.480000,558.690000,131.450000,558.690000Z" fill="rgb(5,5,229)" stroke="none" stroke-width="1"/></g><g id="ebtkld56uc334"><polyline id="ebtkld56uc335" points="1126.300000,468.920000 -57.410000,473.020000 -57.410000,531.950000 1126.300000,527.840000 1126.390000,555.070000 -57.320000,559.180000 -57.320000,647.790000 1126.390000,643.680000 1126.300000,674.550000 -57.410000,678.660000" fill="none" stroke="rgb(0,0,0)" stroke-width="1.500000" stroke-miterlimit="10" stroke-dasharray="6124.230000"/><polyline id="ebtkld56uc336" points="86.890000,1111.840000 86.890000,-25.620000 255.470000,-25.620000 255.470000,1111.840000 300.120000,1111.840000 300.120000,-25.620000" fill="none" stroke="rgb(0,0,0)" stroke-width="1.500000" stroke-miterlimit="10" stroke-dasharray="3625.610000"/><line id="ebtkld56uc337" x1="1004.250000" y1="1111.840000" x2="1004.250000" y2="-133.950000" fill="none" stroke="rgb(0,0,0)" stroke-width="1.500000" stroke-miterlimit="10" stroke-dasharray="1245.790000"/></g></svg>