<svg xmlns="http://www.w3.org/2000/svg" xmlns:xlink="http://www.w3.org/1999/xlink" version="1.1" x="0px" y="0px" viewBox="0 0 100 125" enable-background="new 0 0 100 100" xml:space="preserve"><path d="M49,16.17v58h-5.186c-0.375,0-0.718,0.209-0.889,0.542c-0.172,0.333-0.143,0.733,0.076,1.039l6.186,8.659  c0.188,0.263,0.491,0.419,0.813,0.419s0.626-0.156,0.813-0.419l6.186-8.659c0.124-0.173,0.187-0.376,0.187-0.581  c0-0.156-0.037-0.313-0.111-0.458c-0.171-0.333-0.515-0.542-0.889-0.542H51v-58c0-0.552-0.448-1-1-1S49,15.618,49,16.17z   M54.243,76.17L50,82.109l-4.243-5.939H54.243z"/></svg>