<?xml version="1.0" encoding="utf-8"?>
<!-- Generator: Adobe Illustrator 23.0.6, SVG Export Plug-In . SVG Version: 6.00 Build 0)  -->
<svg version="1.1" id="Layer_1" xmlns="http://www.w3.org/2000/svg" xmlns:xlink="http://www.w3.org/1999/xlink" x="0px" y="0px"
	 viewBox="0 0 603 104" style="enable-background:new 0 0 603 104;" xml:space="preserve">
<style type="text/css">
	.st0{fill:#FFFFFF;}
</style>
<polygon points="82.77,63.03 82.77,54.13 51.46,54.13 67.93,24.76 59.03,24.76 42.57,54.13 34.88,54.13 57.3,14.14 48.41,14.14 
	21,63.03 28.91,63.03 29.89,63.03 37.58,63.03 34.53,68.46 18.53,68.46 13.59,77.36 82.77,77.36 82.77,68.46 43.43,68.46 
	46.47,63.03 "/>
<g>
	<path d="M109.67,78.41V24.97h11.47v44.56h23.17v8.88H109.67z"/>
	<path d="M174.73,73.82c-2.37,3.4-5.85,5.7-11.47,5.7c-3.7,0-10.88-2.81-12.21-8.22c-0.59-2.29-0.74-4.66-0.74-5.92V41.25h11.1
		v22.28c0.07,4,1.18,8.59,6.66,8.59c3.48,0,6.51-3.18,6.66-8.59V41.25h11.1v30.5c0.07,2.22,0.22,4.44,0.44,6.66h-11.1L174.73,73.82z
		"/>
	<path d="M221.37,24.97h11.1v46.04c0,2.44,0.22,4.96,0.37,7.4h-11.1c-0.15-1.78-0.3-3.48-0.3-5.26h-0.15
		c-2.44,4.37-6.59,6.37-11.4,6.37c-10.88,0-15.99-10.14-15.99-19.69c0-9.99,5.85-19.69,17.39-19.69c3.85,0,7.85,2.29,9.92,5.4h0.15
		V24.97z M213.38,72.12c6,0,8-7.18,8-12.29s-2-12.29-8-12.29c-7.11,0-7.99,6.59-7.99,12.29S206.27,72.12,213.38,72.12z"/>
	<path d="M265.19,73.82c-2.37,3.4-5.85,5.7-11.47,5.7c-3.7,0-10.88-2.81-12.21-8.22c-0.59-2.29-0.74-4.66-0.74-5.92V41.25h11.1
		v22.28c0.07,4,1.18,8.59,6.66,8.59c3.48,0,6.51-3.18,6.66-8.59V41.25h11.1v30.5c0.07,2.22,0.22,4.44,0.44,6.66h-11.1L265.19,73.82z
		"/>
	<path d="M304.94,51.17c-0.15-2.52-2.52-3.63-5.03-3.63c-3.03,0-4.44,0.89-4.44,3.33c0,5.85,21.24,2.52,21.24,16.43
		c0,8.14-9.92,12.21-16.8,12.21c-8.66,0-16.21-3.4-16.36-11.92h10.29c0.22,2.89,2.81,4.52,6.07,4.52c3.04,0,5.33-1.26,5.33-4.15
		c0-2.96-5.33-4.22-7.55-4.74c-7.11-1.7-13.69-3.26-13.69-11.92c0-7.77,9.4-11.18,15.91-11.18c7.85,0,14.51,2.81,15.03,11.03H304.94
		z"/>
	<path d="M343.81,24.97h18.21c16.65-0.15,27.02,8.14,27.02,26.72s-10.36,26.87-27.02,26.72h-18.21V24.97z M355.28,69.53h5.92
		c13.62,0.15,15.62-9.33,15.62-17.84c0-8.51-2-17.99-15.62-17.84h-5.92V69.53z"/>
	<path d="M407.03,62.79c0,4.81,0.67,9.33,6.37,9.33c3.85,0,5.77-1.41,6.81-4.81h9.99c-0.96,9.18-8.14,12.21-16.8,12.21
		c-12.73,0-17.84-7.18-17.84-19.62c0-11.18,6.51-19.76,17.84-19.76c6.96,0,12.73,2.37,15.84,8.88c1.04,2.07,1.55,4.29,1.85,6.66
		c0.3,2.29,0.3,4.66,0.3,7.11H407.03z M419.91,55.39c0-4.07-1.11-7.85-6.51-7.85c-5.11,0-6.22,3.78-6.37,7.85H419.91z"/>
	<path d="M457.14,51.17c-0.15-2.52-2.52-3.63-5.03-3.63c-3.03,0-4.44,0.89-4.44,3.33c0,5.85,21.24,2.52,21.24,16.43
		c0,8.14-9.92,12.21-16.8,12.21c-8.66,0-16.21-3.4-16.36-11.92h10.29c0.22,2.89,2.81,4.52,6.07,4.52c3.04,0,5.33-1.26,5.33-4.15
		c0-2.96-5.33-4.22-7.55-4.74c-7.11-1.7-13.69-3.26-13.69-11.92c0-7.77,9.4-11.18,15.91-11.18c7.85,0,14.51,2.81,15.03,11.03H457.14
		z"/>
	<path d="M486.83,24.97v9.55h-11.84v-9.55H486.83z M486.46,41.25v37.16h-11.1V41.25H486.46z"/>
	<path d="M531.83,75.08c0,8.66-1.92,18.13-18.21,17.99c-8.22,0-17.02-2-17.25-11.99h10.51c0.15,3.33,3.11,4.59,6.14,4.59
		c8.44,0,8.14-7.7,7.7-13.1h-0.15c-2.29,3.63-6.22,5.11-10.44,5.11c-10.07,0-15.25-9.47-15.25-18.5c0-9.47,5.4-19.02,15.77-19.02
		c4.96,0,8.14,1.63,9.92,5.4h0.15v-4.29h11.1V75.08z M513.55,70.27c6.07,0,7.18-6.22,7.18-11.03c0-5.48-1.11-11.7-7.18-11.7
		c-6.07,0-7.18,6.22-7.18,11.7C506.37,64.05,507.48,70.27,513.55,70.27z"/>
	<path d="M552.34,45.55l0.15,0.22c2.29-3.4,5.77-5.63,11.4-5.63c3.7,0,10.88,2.74,12.21,8.14c0.59,2.29,0.74,4.66,0.74,5.92v24.2
		h-11.1V56.06c-0.07-4-1.18-8.51-6.66-8.51c-3.48,0-6.51,3.11-6.66,8.51v22.35h-11.1V41.25h11.03V45.55z"/>
</g>
</svg>
